<svg xmlns="http://www.w3.org/2000/svg" version="1.1" xmlns:xlink="http://www.w3.org/1999/xlink" xmlns:svgjs="http://svgjs.com/svgjs" width="1440" height="560" preserveAspectRatio="none" viewBox="0 0 1440 560"><g mask="url(&quot;#SvgjsMask1564&quot;)" fill="none"><rect width="1440" height="560" x="0" y="0" fill="url(#SvgjsRadialGradient1565)"></rect><path d="M1440 0L1019.19 0L1440 6.22z" fill="rgba(255, 255, 255, .1)"></path><path d="M1019.19 0L1440 6.22L1440 163.1L484.31000000000006 0z" fill="rgba(255, 255, 255, .075)"></path><path d="M484.30999999999995 0L1440 163.1L1440 400.64L352.9 0z" fill="rgba(255, 255, 255, .05)"></path><path d="M352.89999999999986 0L1440 400.64L1440 482.23L266.59999999999985 0z" fill="rgba(255, 255, 255, .025)"></path><path d="M0 560L559.39 560L0 345.03999999999996z" fill="rgba(0, 0, 0, .1)"></path><path d="M0 345.03999999999996L559.39 560L895.9300000000001 560L0 301.52z" fill="rgba(0, 0, 0, .075)"></path><path d="M0 301.52L895.9300000000001 560L1024.9 560L0 219.63z" fill="rgba(0, 0, 0, .05)"></path><path d="M0 219.63L1024.9 560L1243.38 560L0 65.22z" fill="rgba(0, 0, 0, .025)"></path></g><defs><mask id="SvgjsMask1564"><rect width="1440" height="560" fill="#ffffff"></rect></mask><radialGradient cx="100%" cy="50%" r="1466.97" gradientUnits="userSpaceOnUse" id="SvgjsRadialGradient1565"><stop stop-color="rgba(85, 169, 255, 1)" offset="0"></stop><stop stop-color="rgba(23, 138, 255, 1)" offset="1"></stop></radialGradient></defs></svg>